<svg width="19" height="19" viewBox="0 0 19 19" fill="none" xmlns="http://www.w3.org/2000/svg">
    <path d="M7.78408 7.00568C7.78408 6.38634 7.53805 5.79237 7.10011 5.35443C6.66217 4.91649 6.0682 4.67046 5.44886 4.67046H5.05965C4.33709 4.67046 3.64412 4.95749 3.13319 5.46842C2.62226 5.97935 2.33522 6.67232 2.33522 7.39489V11.2869C2.33522 12.0095 2.62226 12.7025 3.13319 13.2134C3.64412 13.7243 4.33709 14.0114 5.05965 14.0114H5.44886C6.0682 14.0114 6.66217 13.7653 7.10011 13.3274C7.53805 12.8895 7.78408 12.2955 7.78408 11.6761" stroke="white" stroke-width="1.86818" stroke-linecap="round" stroke-linejoin="round"/>
    <path d="M12.4545 5.44885L11.6761 13.2329" stroke="white" stroke-width="1.86818" stroke-linecap="round" stroke-linejoin="round"/>
    <path d="M15.5682 5.44885L14.7898 13.2329" stroke="white" stroke-width="1.86818" stroke-linecap="round" stroke-linejoin="round"/>
    <path d="M10.8977 7.78409H16.7358" stroke="white" stroke-width="1.86818" stroke-linecap="round" stroke-linejoin="round"/>
    <path d="M16.3466 10.8977H10.5085" stroke="white" stroke-width="1.86818" stroke-linecap="round" stroke-linejoin="round"/>
</svg>
